<?xml version="1.0" encoding="UTF-8"?>
<svg id="_レイヤー_1" data-name="レイヤー_1" xmlns="http://www.w3.org/2000/svg" xmlns:xlink="http://www.w3.org/1999/xlink" version="1.1" viewBox="0 0 323.5 129.7">
  <!-- Generator: Adobe Illustrator 29.2.1, SVG Export Plug-In . SVG Version: 2.1.0 Build 116)  -->
  <defs>
    <style>
      .st0 {
        fill: #0054a6;
      }

      .st1 {
        fill: #003893;
      }

      .st2 {
        fill: #009fe8;
      }
    </style>
  </defs>
  <path class="st0" d="M1.8,56.1l6.2,1.3c-2,8-2.7,15.7-2.3,23,.3-1.2.7-2.2,1.1-3.1l3.3,2.9c-1.3,3-2.4,6.3-3.3,9.9l-5.2.3c-2.2-10.1-2.1-21.5.2-34.3M21.5,77.1c-.2-2.2-.3-3.8-.3-4.9-3.4,0-6.7.2-9.9.2l-.2-5.4c4.6,0,8,0,10.3-.3v-3.6c-2.9.2-5.9.3-8.8.3v-5.5c5.3,0,11.5-.2,18.6-1v5.4l-3.9.3-.2,3.6c2.6,0,4.7-.3,6.2-.7v5.4c-1.5.2-3.6.4-6.2.7,0,2.6.2,5,.5,7.2,2.4,1,4.9,2.4,7.7,4.2l-2.6,4.9c-1.4-1.3-3.1-2.4-5.2-3.4,0,1.2-.5,2.3-1.3,3.3-.9,1.2-2.1,2-3.6,2.3-2.7.7-5.1.5-7.2-.3-2.6-1.1-4-2.9-4.2-5.4-.2-2.7.8-4.8,3.1-6.2,1.9-1.4,4.3-1.8,7.2-1.1M21.8,82.1c-2.6-.8-4.2-.5-4.9.6-.4.8-.4,1.4,0,1.8.3.4.9.7,1.8.7,2.3,0,3.3-1,3.1-3.1"/>
  <path class="st0" d="M43.7,55.6l5.5,1.1c-1.7,7.2-2.2,14.9-1.3,23.1l2-4.9,3.9,2.6c-1.5,3.7-2.7,7.4-3.4,11.1l-5.5,1c-3.6-11.1-4-22.5-1.2-34M53.8,64.4c5.5.2,9.2.3,11.1.2l-.2-9.3,5.5.3.2,8.5c1.6,0,3.5-.3,5.7-.5v5.4c-2,.3-3.9.5-5.7.5.5,9.1-1.9,16.3-7.3,21.5l-4.2-4.1c2.5-2.4,4.2-5,5-8,.8-2.3,1.1-5.3,1-9.1-3.8.2-7.5.2-11.1,0,0,0,0-5.4,0-5.4Z"/>
  <path class="st0" d="M78.2,87.8c4.4-11,9.1-21.9,13.8-32.7l6,2.1c-2.6,5.3-4.8,10.2-6.5,14.7,2.1-1.5,4.1-2,6-1.3,2.1.8,3.1,2.2,3.1,4.4v7.2c0,1.3.4,1.8,1.3,1.6,1-.3,2.3-1.5,4.1-3.4,1.3-1.4,2.2-2.7,2.6-3.7l4.2,4.6c-2.3,3.8-5.2,6.6-8.6,8.3-2.3,1.2-4.4,1.5-6.3,1-2.3-.6-3.4-2.2-3.3-4.6l.2-7.3c0-2.3-1-2.8-3.1-1.6-2.2,1.2-3.7,3-4.7,5.5-.5,1.5-1.5,4.2-2.8,8l-6-2.8Z"/>
  <path class="st1" d="M136.6,90.7l-2.4-4.3c3.4-1.2,5.7-2.6,6.9-4.3,2.2-3.3,2.6-6.5,1.2-9.6-1.3-3-3.8-4.4-7.3-4.3,0,9.3-2,15.7-5.9,19.1-1.6,1.3-3.3,1.7-5,1.1-1.8-.7-3.1-2-4-3.9-1.8-3.6-1.8-7.4,0-11.5,1.7-3.9,4.5-6.6,8.4-8.1,2.8-1.1,5.5-1.4,8.2-1.1,2.9.3,5.3,1.3,7.3,3.2,2.3,2.2,3.6,4.9,3.9,8.1.3,3.5-.5,6.6-2.4,9.3-2.2,2.9-5,4.9-8.8,6.3M130.4,68.7c-4,1.4-6.3,4.4-6.7,8.8-.2,1.3,0,2.5.4,3.8.5,1.5,1.3,2.1,2.2,1.6,1.2-.5,2.2-2,3-4.4.7-2.5,1.1-5.7,1.1-9.8"/>
  <path class="st2" d="M252.1,77.9c3.9-2.2,8.2-5.3,12.7-9.4l4.4,6.1c-3.7,3.5-8,7-12.9,10.5l-4.2-7.2Z"/>
  <path class="st0" d="M265.9,88.4l2-7.2c3.4,1.8,6.1,2.4,8.3,2,1.8-.3,2.5-1.2,2.2-2.8-.3-1.3-1.1-2.6-2.4-3.9l-4.6-4.6c-2-2.2-2.9-4.7-2.6-7.7.1-2.3,1.2-4.5,3.1-6.6l7,3.5c-1.8,2.5-1.8,4.8,0,7,.7,1,2.3,2.8,4.8,5.3,1.8,1.8,2.9,3.6,3.3,5.5.9,3.8.3,6.9-1.8,9.2-2,2.2-4.9,3.3-8.5,3.3-3.5-.2-7.1-1.1-10.8-3"/>
  <path class="st2" d="M267,50.2l3.9-6.6c5.7,2.2,10.8,4.4,15.3,6.6l-3.7,6.6c-4.5-2.3-9.6-4.5-15.5-6.6"/>
  <path class="st1" d="M284.5,69.1l5.7-5.3c3.5,3.4,7.2,7.9,11.2,13.6l-6.4,5.5c-2.3-3.8-5.8-8.4-10.5-13.8"/>
  <polygon class="st2" points="287.8 53.3 291.1 50 296.4 54.8 293.1 58.4 287.8 53.3"/>
  <polygon class="st0" points="292.9 48.5 296.2 45 301.4 49.8 298.1 53.3 292.9 48.5"/>
  <path class="st2" d="M169.8,46.1l-7.9.2v12.1l-10.5,1.1.9,8.5,9.6-1.5.2,13.2h8v-.9l-.2-13.4,3.3-.4v-7.8l-3.3.3v-11.4h-.1Z"/>
  <path class="st0" d="M181.6,64.1v4.2c0,1.5-.8,2.2-2.4,2.2s-2.3,0-3.7-.2l1.1,7.2c3.2.7,6.3.6,9.2-.4,2.8-1,4.2-3,4.2-5.9v-8.1l9.4-.4-.2-7.7-9,.7c-.1-3.9-.2-7.9-.2-11.8h-8.4c0,4.2.1,8.5.2,12.7l-8.7.8v7.8l8.5-1.1Z"/>
  <path class="st0" d="M181.6,63.9v4.2c0,1.5-.8,2.2-2.4,2.2s-2.3,0-3.7-.2l1.1,7.2c3.2.7,6.3.6,9.2-.4,2.8-1,4.2-3,4.2-5.9v-8.1l9.4-.4-.2-7.7-9,.7c-.1-3.9-.2-7.9-.2-11.8h-8.4c0,4.2.1,8.5.2,12.7l-8.7.8v7.8l8.5-1.1Z"/>
  <polygon class="st0" points="190.8 47.6 194.1 54 197.8 51.6 194.3 45.6 190.8 47.6"/>
  <polygon class="st0" points="195.4 45 198.9 50.9 202.4 48.7 198.9 42.8 195.4 45"/>
  <path class="st1" d="M162.1,81.6c0,3.2,1,5.6,3.1,7,2,1.5,5.3,2.1,9.9,2,6.6,0,13.4-.5,20.4-1.1v-8.3c-7.9.7-14.8,1.1-20.8,1.1s-3.1-.2-3.7-.7c-.5-.3-.7-1-.8-1.9h-8v1.9Z"/>
  <path class="st0" d="M222.1,72v-7.3c-.8.3-1.5.8-2.3,1.4,2.3-6,5.3-12.6,8.8-19.7l-8.1-2.8c-4.2,9.6-8.4,19.3-12.4,28.9h12.8c.5-.3.9-.4,1.2-.5"/>
  <path class="st2" d="M210,91c1.8-5.1,3-8.7,3.7-10.7,1.3-3.4,3.4-5.8,6.4-7.5.3-.2.6-.3.8-.4h-12.8c-2.1,5-4.2,10.1-6.2,15.1l8.1,3.5Z"/>
  <path class="st1" d="M224.2,75l-.2,9.9c-.1,3.2,1.3,5.3,4.4,6.1,2.6.7,5.5.3,8.5-1.3,4.7-2.3,8.5-6.1,11.6-11.2l-5.7-6.1c-.6,1.5-1.8,3.1-3.5,5-2.3,2.6-4.2,4.2-5.5,4.6-1.2.3-1.8-.4-1.8-2.2v-9.6c0-2.9-1.4-4.9-4.2-5.9-1.9-.6-3.8-.5-5.8.4v7.4c1.5-.3,2.2.7,2.2,2.9"/>
  <path class="st1" d="M199.8,28c-.3.6-.1.9.5.7l23.1-5.4c.6,0,.9-.7.5-1.3l-10.1-15.8c-.3-.5-.9-.5-1.2,0l-12.8,21.8Z"/>
  <path class="st1" d="M256.6,129.7c-20.2,0-39.8-8.7-53-24.2l-2.5-2.9,5.8-4.9,2.5,2.9c15.1,17.8,39.8,25.5,62.8,19.6,15.8-4.1,28.8-13.9,36.6-27.6,7.4-13,9.2-28.1,5-42.5-8.9-30.6-42.2-48.7-74.1-40.5-9.4,2.4-17.8,6.8-24.9,13.1l-2.9,2.5-5.1-5.7,2.9-2.5c7.9-7,17.6-12.1,28-14.8,35.9-9.3,73.2,11.3,83.3,45.7,4.8,16.4,2.8,33.6-5.6,48.4-8.8,15.5-23.5,26.6-41.3,31.2-5.8,1.4-11.7,2.2-17.5,2.2"/>
</svg>